<svg xmlns="http://www.w3.org/2000/svg" viewBox="0 0 32 32" width="32" height="32">
  <defs>
    <linearGradient id="brainGrad" x1="0%" y1="0%" x2="100%" y2="100%">
      <stop offset="0%" style="stop-color:#FF6B35;stop-opacity:1" />
      <stop offset="100%" style="stop-color:#FF8A5C;stop-opacity:1" />
    </linearGradient>
    <linearGradient id="anchorGrad" x1="0%" y1="0%" x2="0%" y2="100%">
      <stop offset="0%" style="stop-color:#FFB340;stop-opacity:1" />
      <stop offset="100%" style="stop-color:#FF6B35;stop-opacity:1" />
    </linearGradient>
  </defs>

  <!-- Dark background matching website theme -->
  <rect width="32" height="32" rx="6" fill="#0A0A0A"/>

  <!-- Brain (Mind) -->
  <g transform="translate(16, 13)">
    <path d="M -4,-5 Q -7,-5 -7,-2.5 Q -7,0 -6.5,1.5 Q -6,3.5 -4,4 Q -2.5,4.5 -1,4.2 L -1,-4 Q -2.5,-5.2 -4,-5 Z"
          fill="url(#brainGrad)"/>
    <path d="M 1,-4.2 Q 2.5,-5 4,-5 Q 5.5,-5.2 7,-4 L 7,1.5 Q 7,3.5 6.5,4 Q 6,4.5 4,4.2 Q 2.5,4 1,3 L 1,-4.2 Z"
          fill="url(#brainGrad)"/>
    <ellipse cx="0" cy="0" rx="0.5" ry="2.5" fill="#FFB340" opacity="0.8"/>
  </g>

  <!-- Anchor (Stability) -->
  <g transform="translate(16, 22)">
    <path d="M 0,-2.5 L 0,4" stroke="url(#anchorGrad)" stroke-width="1.5" stroke-linecap="round"/>
    <circle cx="0" cy="-2.5" r="1" fill="url(#anchorGrad)"/>
    <path d="M -2.5,2.5 Q -2.5,4 -1.5,4 Q 0,3 0,4 Q 0,3 1.5,4 Q 2.5,4 2.5,2.5"
          stroke="url(#anchorGrad)" stroke-width="1.5" fill="none" stroke-linecap="round"/>
    <line x1="-2" y1="1" x2="2" y2="1" stroke="url(#anchorGrad)" stroke-width="1.5" stroke-linecap="round"/>
  </g>
</svg>