<svg xmlns="http://www.w3.org/2000/svg" viewBox="0 0 200 200" width="200" height="200">
  <defs>
    <linearGradient id="brainGradient" x1="0%" y1="0%" x2="100%" y2="100%">
      <stop offset="0%" style="stop-color:#FF6B35;stop-opacity:1" />
      <stop offset="100%" style="stop-color:#FF8A5C;stop-opacity:1" />
    </linearGradient>
    <linearGradient id="anchorGradient" x1="0%" y1="0%" x2="0%" y2="100%">
      <stop offset="0%" style="stop-color:#FFB340;stop-opacity:1" />
      <stop offset="100%" style="stop-color:#FF6B35;stop-opacity:1" />
    </linearGradient>
  </defs>

  <!-- Outer circle background with orange glow -->
  <circle cx="100" cy="100" r="95" fill="none" stroke="url(#brainGradient)" stroke-width="2" opacity="0.3"/>

  <!-- Brain shape (Mind) -->
  <g transform="translate(100, 85)">
    <!-- Left hemisphere -->
    <path d="M -25,-30 Q -45,-30 -45,-15 Q -45,0 -40,10 Q -35,20 -25,25 Q -15,30 -5,28 L -5,-25 Q -15,-32 -25,-30 Z"
          fill="url(#brainGradient)" opacity="0.9"/>

    <!-- Right hemisphere -->
    <path d="M 5,-28 Q 15,-30 25,-30 Q 35,-32 45,-25 L 45,10 Q 45,20 40,25 Q 35,30 25,28 Q 15,26 5,20 L 5,-28 Z"
          fill="url(#brainGradient)" opacity="0.9"/>

    <!-- Brain details/folds - lighter orange -->
    <path d="M -35,-15 Q -30,-10 -35,-5" stroke="#FFB340" stroke-width="2" fill="none" opacity="0.7"/>
    <path d="M -35,5 Q -30,10 -35,15" stroke="#FFB340" stroke-width="2" fill="none" opacity="0.7"/>
    <path d="M 35,-15 Q 30,-10 35,-5" stroke="#FFB340" stroke-width="2" fill="none" opacity="0.7"/>
    <path d="M 35,5 Q 30,10 35,15" stroke="#FFB340" stroke-width="2" fill="none" opacity="0.7"/>

    <!-- Connection in middle -->
    <ellipse cx="0" cy="0" rx="3" ry="15" fill="#FFB340" opacity="0.8"/>
  </g>

  <!-- Anchor symbol (Stability) -->
  <g transform="translate(100, 135)">
    <path d="M 0,-15 L 0,25" stroke="url(#anchorGradient)" stroke-width="3" stroke-linecap="round"/>
    <circle cx="0" cy="-15" r="5" fill="url(#anchorGradient)"/>
    <path d="M -15,15 Q -15,25 -8,25 Q 0,20 0,25 Q 0,20 8,25 Q 15,25 15,15"
          stroke="url(#anchorGradient)" stroke-width="3" fill="none" stroke-linecap="round"/>
    <line x1="-12" y1="5" x2="12" y2="5" stroke="url(#anchorGradient)" stroke-width="3" stroke-linecap="round"/>
  </g>

  <!-- Creative sparkles/energy particles with orange theme -->
  <g opacity="0.8">
    <path d="M 160,50 L 163,55 L 168,56 L 164,60 L 165,65 L 160,62 L 155,65 L 156,60 L 152,56 L 157,55 Z"
          fill="#FFB340"/>
    <path d="M 45,140 L 47,143 L 50,144 L 47,147 L 48,150 L 45,148 L 42,150 L 43,147 L 40,144 L 43,143 Z"
          fill="#FF8A5C"/>
    <path d="M 155,140 L 157,143 L 160,144 L 157,147 L 158,150 L 155,148 L 152,150 L 153,147 L 150,144 L 153,143 Z"
          fill="#FF6B35"/>
  </g>

  <!-- Orbital circles suggesting thought/ideas - orange theme -->
  <circle cx="100" cy="100" r="70" fill="none" stroke="#FF6B35" stroke-width="1" opacity="0.2" stroke-dasharray="5,5"/>
  <circle cx="100" cy="100" r="80" fill="none" stroke="#FF8A5C" stroke-width="1" opacity="0.2" stroke-dasharray="5,5"/>
</svg>